grf
version=1
nRows=7
nColumns=73
inDegrees=yes
endheader
time	ground_force_1_vx	ground_force_1_vy	ground_force_1_vz	ground_force_1_px	ground_force_1_py	ground_force_1_pz	ground_moment_1_mx	ground_moment_1_my	ground_moment_1_mz	ground_force_2_vx	ground_force_2_vy	ground_force_2_vz	ground_force_2_px	ground_force_2_py	ground_force_2_pz	ground_moment_2_mx	ground_moment_2_my	ground_moment_2_mz	ground_force_3_vx	ground_force_3_vy	ground_force_3_vz	ground_force_3_px	ground_force_3_py	ground_force_3_pz	ground_moment_3_mx	ground_moment_3_my	ground_moment_3_mz	ground_force_4_vx	ground_force_4_vy	ground_force_4_vz	ground_force_4_px	ground_force_4_py	ground_force_4_pz	ground_moment_4_mx	ground_moment_4_my	ground_moment_4_mz	ground_force_5_vx	ground_force_5_vy	ground_force_5_vz	ground_force_5_px	ground_force_5_py	ground_force_5_pz	ground_moment_5_mx	ground_moment_5_my	ground_moment_5_mz	ground_force_6_vx	ground_force_6_vy	ground_force_6_vz	ground_force_6_px	ground_force_6_py	ground_force_6_pz	ground_moment_6_mx	ground_moment_6_my	ground_moment_6_mz	ground_force_7_vx	ground_force_7_vy	ground_force_7_vz	ground_force_7_px	ground_force_7_py	ground_force_7_pz	ground_moment_7_mx	ground_moment_7_my	ground_moment_7_mz	ground_force_8_vx	ground_force_8_vy	ground_force_8_vz	ground_force_8_px	ground_force_8_py	ground_force_8_pz	ground_moment_8_mx	ground_moment_8_my	ground_moment_8_mz
2.543000	68.459703	536.218760	9.258829	0.248286	0.000000	0.326499	0.000000	-0.043984	0.000000	0.000000	0.000000	0.000000	0.000000	0.000000	0.000000	0.000000	0.000000	0.000000	0.000000	0.000000	0.000000	0.000000	0.000000	0.000000	0.000000	0.000000	0.000000	68.480696	536.123894	9.242456	0.246220	0.000000	0.325073	0.000000	-0.041821	-0.000000	0.000000	0.000000	0.000000	0.000000	0.000000	0.000000	0.000000	0.000000	0.000000	67.758828	538.933969	9.484388	0.250679	0.000000	0.326400	-0.000000	-0.075319	0.000000	67.976738	537.349389	9.116690	0.252904	0.000000	0.326076	0.000000	0.026804	0.000000	0.000000	0.000000	0.000000	0.000000	0.000000	0.000000	0.000000	0.000000	0.000000
2.544000	68.810001	535.373583	9.063157	0.247315	0.000000	0.326560	0.000000	-0.034617	0.000000	0.000000	0.000000	0.000000	0.000000	0.000000	0.000000	0.000000	0.000000	0.000000	0.000000	0.000000	0.000000	0.000000	0.000000	0.000000	0.000000	0.000000	0.000000	68.829373	535.286387	9.048238	0.245247	0.000000	0.325134	0.000000	-0.032586	-0.000000	0.000000	0.000000	0.000000	0.000000	0.000000	0.000000	0.000000	0.000000	0.000000	68.081721	538.153287	9.304317	0.249700	0.000000	0.326468	-0.000000	-0.067130	0.000000	68.281460	536.584608	8.945617	0.251933	0.000000	0.326141	0.000000	0.035196	0.000000	0.000000	0.000000	0.000000	0.000000	0.000000	0.000000	0.000000	0.000000	0.000000
2.545000	69.166101	534.514412	8.862832	0.246339	0.000000	0.326621	0.000000	-0.024423	0.000000	0.000000	0.000000	0.000000	0.000000	0.000000	0.000000	0.000000	0.000000	0.000000	0.000000	0.000000	0.000000	0.000000	0.000000	0.000000	0.000000	0.000000	0.000000	69.183809	534.434956	8.849360	0.244269	0.000000	0.325196	0.000000	-0.022534	-0.000000	0.000000	0.000000	0.000000	0.000000	0.000000	0.000000	0.000000	0.000000	0.000000	68.410830	537.352099	9.119798	0.248721	0.000000	0.326535	-0.000000	-0.057496	0.000000	68.595882	535.806129	8.770031	0.250972	0.000000	0.326205	0.000000	0.044290	0.000000	0.000000	0.000000	0.000000	0.000000	0.000000	0.000000	0.000000	0.000000	0.000000
2.546000	69.528174	533.642146	8.658008	0.245358	0.000000	0.326684	0.000000	-0.013364	0.000000	1.730617	28.729639	1.990112	0.534631	0.000000	0.425823	0.000000	-0.629848	0.000000	-5.433555	40.908659	4.549360	0.588457	0.000000	0.390407	0.000000	-0.314902	0.000000	69.544208	533.570376	8.645957	0.243287	0.000000	0.325259	0.000000	-0.011622	-0.000000	0.000000	0.000000	0.000000	0.000000	0.000000	0.000000	0.000000	0.000000	0.000000	68.746277	536.531132	8.930633	0.247740	0.000000	0.326602	-0.000000	-0.046775	0.000000	68.920347	535.013738	8.589250	0.250021	0.000000	0.326270	0.000000	0.053921	0.000000	0.000000	0.000000	0.000000	0.000000	0.000000	0.000000	0.000000	0.000000	0.000000
2.547000	69.896319	532.757654	8.448474	0.244370	0.000000	0.326749	-0.000000	-0.001351	0.000000	1.986128	31.047154	2.090421	0.555925	0.000000	0.427360	0.000000	-0.617686	0.000000	-4.473398	40.955883	4.246243	0.604308	0.000000	0.394775	0.000000	-0.318045	0.000000	69.910694	532.693413	8.437803	0.242298	0.000000	0.325324	0.000000	0.000239	-0.000000	0.000000	0.000000	0.000000	0.000000	0.000000	0.000000	0.000000	0.000000	0.000000	69.088402	535.691464	8.736957	0.246756	0.000000	0.326670	-0.000000	-0.035156	0.000000	69.255026	534.207451	8.403213	0.249077	0.000000	0.326333	0.000000	0.064035	0.000000	0.000000	0.000000	0.000000	0.000000	0.000000	0.000000	0.000000	0.000000	0.000000
2.548000	70.270570	531.861925	8.233593	0.243375	0.000000	0.326815	-0.000000	0.011526	0.000000	2.341230	33.755701	2.161492	0.576570	0.000000	0.428794	0.000000	-0.599491	0.000000	-3.435026	41.619472	3.948400	0.619746	0.000000	0.399096	0.000000	-0.317010	0.000000	70.283322	531.804973	8.224249	0.241302	0.000000	0.325390	0.000000	0.012966	-0.000000	-1.926834	18.237183	2.072811	0.770357	0.000000	0.380842	0.000000	-0.450105	0.000000	69.437571	534.834434	8.538865	0.245768	0.000000	0.326739	-0.000000	-0.022613	0.000000	69.599874	533.387478	8.212001	0.248140	0.000000	0.326397	0.000000	0.074754	0.000000	3.185024	14.880640	-4.760680	0.683174	0.000000	0.197891	-0.000000	0.441135	-0.000000
2.549000	70.650961	530.955965	8.012551	0.242371	0.000000	0.326884	-0.000000	0.024912	0.000000	2.806263	36.864802	2.198704	0.596372	0.000000	0.430144	0.000000	-0.574752	0.000000	-2.314520	42.901841	3.650937	0.634616	0.000000	0.403338	0.000000	-0.310743	0.000000	70.662143	530.905995	8.004474	0.240297	0.000000	0.325460	0.000000	0.026205	-0.000000	-1.332562	20.818751	2.078691	0.775058	0.000000	0.386161	0.000000	-0.454417	0.000000	69.794035	533.961541	8.336101	0.244775	0.000000	0.326810	-0.000000	-0.009041	0.000000	69.954692	532.554212	8.015387	0.247208	0.000000	0.326460	0.000000	0.086263	0.000000	3.177186	18.349679	-4.111723	0.689429	0.000000	0.218737	-0.000000	0.231836	-0.000000
